<mxfile host="app.diagrams.net" modified="2022-10-02T13:30:37.628Z" agent="5.0 (Windows NT 10.0; Win64; x64) AppleWebKit/537.36 (KHTML, like Gecko) Chrome/106.0.0.0 Safari/537.36" etag="6Jsf5q8mm6zUWWQK5rzX" version="20.4.0" type="github">
  <diagram id="1m6kKrMNQ8tJTLsNgyjR" name="Page-1">
    <mxGraphModel dx="868" dy="450" grid="1" gridSize="10" guides="1" tooltips="1" connect="1" arrows="1" fold="1" page="1" pageScale="1" pageWidth="850" pageHeight="1100" math="0" shadow="0">
      <root>
        <mxCell id="0" />
        <mxCell id="1" parent="0" />
        <mxCell id="1v60PmqPNBaC-e9d01AT-12" value="" style="shape=table;startSize=0;container=1;collapsible=0;childLayout=tableLayout;" parent="1" vertex="1">
          <mxGeometry x="640" y="40" width="160" height="80" as="geometry" />
        </mxCell>
        <mxCell id="1v60PmqPNBaC-e9d01AT-13" value="" style="shape=tableRow;horizontal=0;startSize=0;swimlaneHead=0;swimlaneBody=0;top=0;left=0;bottom=0;right=0;collapsible=0;dropTarget=0;fillColor=none;points=[[0,0.5],[1,0.5]];portConstraint=eastwest;" parent="1v60PmqPNBaC-e9d01AT-12" vertex="1">
          <mxGeometry width="160" height="20" as="geometry" />
        </mxCell>
        <mxCell id="1v60PmqPNBaC-e9d01AT-14" value="" style="shape=partialRectangle;html=1;whiteSpace=wrap;connectable=0;overflow=hidden;fillColor=none;top=0;left=0;bottom=0;right=0;pointerEvents=1;" parent="1v60PmqPNBaC-e9d01AT-13" vertex="1">
          <mxGeometry width="41" height="20" as="geometry">
            <mxRectangle width="41" height="20" as="alternateBounds" />
          </mxGeometry>
        </mxCell>
        <mxCell id="1v60PmqPNBaC-e9d01AT-15" value="機能" style="shape=partialRectangle;html=1;whiteSpace=wrap;connectable=0;overflow=hidden;fillColor=none;top=0;left=0;bottom=0;right=0;pointerEvents=1;" parent="1v60PmqPNBaC-e9d01AT-13" vertex="1">
          <mxGeometry x="41" width="119" height="20" as="geometry">
            <mxRectangle width="119" height="20" as="alternateBounds" />
          </mxGeometry>
        </mxCell>
        <mxCell id="1v60PmqPNBaC-e9d01AT-16" value="" style="shape=tableRow;horizontal=0;startSize=0;swimlaneHead=0;swimlaneBody=0;top=0;left=0;bottom=0;right=0;collapsible=0;dropTarget=0;fillColor=none;points=[[0,0.5],[1,0.5]];portConstraint=eastwest;" parent="1v60PmqPNBaC-e9d01AT-12" vertex="1">
          <mxGeometry y="20" width="160" height="60" as="geometry" />
        </mxCell>
        <mxCell id="1v60PmqPNBaC-e9d01AT-17" value="" style="shape=partialRectangle;html=1;whiteSpace=wrap;connectable=0;overflow=hidden;fillColor=none;top=0;left=0;bottom=0;right=0;pointerEvents=1;" parent="1v60PmqPNBaC-e9d01AT-16" vertex="1">
          <mxGeometry width="41" height="60" as="geometry">
            <mxRectangle width="41" height="60" as="alternateBounds" />
          </mxGeometry>
        </mxCell>
        <mxCell id="1v60PmqPNBaC-e9d01AT-18" value="近氏3&lt;br&gt;機ksン&lt;br&gt;老艇" style="shape=partialRectangle;html=1;whiteSpace=wrap;connectable=0;overflow=hidden;fillColor=none;top=0;left=0;bottom=0;right=0;pointerEvents=1;" parent="1v60PmqPNBaC-e9d01AT-16" vertex="1">
          <mxGeometry x="41" width="119" height="60" as="geometry">
            <mxRectangle width="119" height="60" as="alternateBounds" />
          </mxGeometry>
        </mxCell>
      </root>
    </mxGraphModel>
  </diagram>
</mxfile>
